PathFileType	4	(X/Y/Z)	C:/Users/opensim2020/Desktop/walking_exp_matlab/subject03_walking05_straight_02.trc																																																																																																																																					
DataRate	CameraRate	NumFrames	NumMarkers	Units	OrigDataRate	OrigDataStartFrame	OrigNumFrames																																																																																																																																	
100	100	6	45	mm	100	1603	252																																																																																																																																	
Frame#	Time	LFHD			RFHD			LBHD			RBHD			C7			T10			CLAV			STRN			RBAK			LSHO			LUPA			LELB			LFRM			LWRA			LWRB			LFIN			RSHO			RUPA			RELB			RFRM			RWRA			RWRB			RFIN			LASI			RASI			LPSI			RPSI			LTHI			LKNE			LTIB			LANK			LHEE			LTOE			RTHI			RKNE			RTIB			RANK			RHEE			RTOE			*39			*40			*41			*42			*43			*44		
		X1	Y1	Z1	X2	Y2	Z2	X3	Y3	Z3	X4	Y4	Z4	X5	Y5	Z5	X6	Y6	Z6	X7	Y7	Z7	X8	Y8	Z8	X9	Y9	Z9	X10	Y10	Z10	X11	Y11	Z11	X12	Y12	Z12	X13	Y13	Z13	X14	Y14	Z14	X15	Y15	Z15	X16	Y16	Z16	X17	Y17	Z17	X18	Y18	Z18	X19	Y19	Z19	X20	Y20	Z20	X21	Y21	Z21	X22	Y22	Z22	X23	Y23	Z23	X24	Y24	Z24	X25	Y25	Z25	X26	Y26	Z26	X27	Y27	Z27	X28	Y28	Z28	X29	Y29	Z29	X30	Y30	Z30	X31	Y31	Z31	X32	Y32	Z32	X33	Y33	Z33	X34	Y34	Z34	X35	Y35	Z35	X36	Y36	Z36	X37	Y37	Z37	X38	Y38	Z38	X39	Y39	Z39	X40	Y40	Z40	X41	Y41	Z41	X42	Y42	Z42	X43	Y43	Z43	X44	Y44	Z44	X45	Y45	Z45
																																																																																																																																								
127	1.26	-44.75028	1618.69092	-1480.99866	-56.08432	1627.11548	-1348.46094	-174.561	1579.86316	-1485.46985	-181.31815	1588.01038	-1354.66113	-214.79443	1422.91394	-1417.30969	-248.78963	1107.75037	-1409.80737	-94.03195	1344.0802	-1418.48926	-52.86867	1179.4613	-1423.88452	-266.57047	1248.37451	-1314.71448	-144.15631	1379.77246	-1573.20703	-150.63316	1180.78601	-1638.48364	-137.33627	1057.87842	-1647.34973	-107.94045	930.67072	-1647.95068	-87.24961	812.14038	-1618.64746	-112.01602	818.11395	-1668.97156	-99.95681	734.01569	-1660.26855	-135.05334	1371.5011	-1258.44788	-114.08247	1151.21167	-1182.72681	-85.07551	1042.06543	-1170.54065	-50.26506	909.8363	-1170.48816	-12.6134	819.17767	-1210.50574	-36.52836	810.58459	-1162.276	-6.32711	743.01947	-1175.70935	-82.53467	947.58905	-1533.62659	-74.65682	947.63934	-1295.75757	-243.51793	960.92206	-1479.31787	-236.3998	975.33716	-1329.99841	-60.27021	651.26733	-1585.86963	2.97574	482.91638	-1563.297	-108.00384	318.56143	-1554.44287	-212.74522	140.11761	-1508.82629	-263.7077	124.49368	-1466.59753	-95.84746	51.6407	-1490.6405	-134.52908	651.49573	-1260.41492	-131.56833	471.94989	-1299.07495	-186.13907	288.16641	-1298.00183	-221.81352	75.29068	-1350.88525	-265.92703	43.93832	-1401.79651	-80.12943	36.14957	-1364.02673	NaN	NaN	NaN	NaN	NaN	NaN	NaN	NaN	NaN	NaN	NaN	NaN	NaN	NaN	NaN	NaN	NaN	NaN
128	1.27	-35.44079	1618.09497	-1481.49658	-46.64543	1626.7688	-1348.91162	-165.32924	1579.38806	-1485.69446	-171.89125	1587.8125	-1354.89697	-205.80942	1422.7804	-1417.22144	-239.85249	1107.4281	-1409.42004	-84.9392	1343.65405	-1418.55212	-43.80106	1179.05212	-1423.6897	-257.09534	1248.28235	-1313.93738	-135.28267	1379.19153	-1573.31812	-144.70514	1180.1405	-1639.16064	-133.63019	1056.99585	-1648.22119	-106.29091	929.36517	-1649.36304	-87.48128	810.38312	-1620.44324	-112.46834	816.86554	-1670.42078	-102.116	732.54303	-1662.00806	-125.55038	1371.38257	-1258.50134	-102.89198	1151.53528	-1182.13599	-72.57134	1042.83252	-1169.75964	-35.74931	911.14508	-1169.96423	3.21683	821.12366	-1210.13123	-20.37132	812.11658	-1162.10779	11.11868	745.11743	-1175.54688	-73.75814	947.53369	-1532.85803	-65.99905	946.99127	-1295.39758	-234.4883	960.57001	-1479.40112	-227.76535	974.93549	-1329.99792	-48.67978	652.22015	-1585.83313	16.23703	484.57114	-1562.34241	-87.71674	315.28085	-1553.97949	-183.38139	131.82358	-1508.46216	-233.21568	113.01957	-1466.13635	-61.68409	49.66383	-1490.89612	-128.53214	651.04608	-1260.26587	-127.48718	471.47287	-1298.97607	-183.85091	288.16714	-1298.10547	-221.53397	75.71925	-1351.08606	-265.4838	44.2955	-1401.99512	-80.10942	36.23836	-1363.83447	NaN	NaN	NaN	NaN	NaN	NaN	NaN	NaN	NaN	NaN	NaN	NaN	NaN	NaN	NaN	NaN	NaN	NaN
129	1.28	-26.1916	1617.41663	-1481.96167	-37.18236	1626.34021	-1349.41125	-156.00555	1578.73499	-1485.79785	-162.49591	1587.41821	-1355.1001	-196.34146	1422.18469	-1417.13037	-230.92027	1107.04724	-1409.14563	-75.80282	1343.10205	-1418.62732	-34.89296	1178.40796	-1423.50122	-247.78624	1248.09888	-1313.42383	-126.49606	1378.50024	-1573.51208	-138.83153	1179.36145	-1639.61633	-129.88461	1056.11719	-1649.16064	-104.80733	928.08508	-1650.7583	-87.38608	808.77167	-1622.02991	-112.85728	815.7074	-1671.97546	-103.9064	731.03278	-1663.73254	-115.97852	1371.14917	-1258.67053	-91.69691	1151.77893	-1181.6156	-60.15921	1043.46375	-1169.02979	-21.28544	912.35602	-1169.48181	19.02798	823.07886	-1209.76294	-4.68302	813.45337	-1161.73254	27.89465	747.07098	-1175.23816	-64.745	947.3526	-1532.34351	-57.47635	946.23315	-1295.02869	-225.54855	960.03052	-1479.44312	-219.00923	974.29315	-1330.07166	-37.28767	652.95941	-1585.8822	28.73609	485.89279	-1561.40125	-67.97369	311.8685	-1553.31689	-153.23898	123.03693	-1507.64233	-201.58899	101.30495	-1465.30127	-27.10762	47.88925	-1491.62598	-122.66621	650.47571	-1260.16016	-123.34435	471.01947	-1298.88428	-181.52583	288.21954	-1298.30884	-221.41217	76.08952	-1351.32275	-265.34827	44.82663	-1402.21301	-80.03784	36.1956	-1363.80334	NaN	NaN	NaN	NaN	NaN	NaN	NaN	NaN	NaN	NaN	NaN	NaN	NaN	NaN	NaN	NaN	NaN	NaN
130	1.29	-16.92977	1616.69763	-1482.48376	-27.76937	1625.86682	-1349.92468	-146.7742	1577.9873	-1486.09302	-153.15547	1586.93665	-1355.40967	-186.87733	1421.74011	-1417.28223	-221.74358	1106.55139	-1409.2085	-66.59061	1342.44775	-1418.7655	-25.81436	1177.72412	-1423.37805	-238.63806	1247.86389	-1313.06555	-117.48184	1377.65576	-1573.71533	-132.69768	1178.52161	-1640.11157	-126.08578	1055.23462	-1650.14148	-103.14754	926.8158	-1652.1311	-87.3655	807.30981	-1623.97876	-113.07773	814.56635	-1673.45251	-105.16225	729.79706	-1665.26526	-106.43778	1370.75891	-1258.80518	-80.52407	1151.85388	-1181.12781	-47.79591	1043.91101	-1168.37341	-6.93228	913.4447	-1169.04028	35.38514	825.05573	-1209.23608	11.24576	814.81757	-1161.75623	45.06435	749.07098	-1175.2915	-54.49186	947.29822	-1532.33777	-49.07876	945.39105	-1294.63782	-216.64206	959.47742	-1479.70862	-210.64284	973.74957	-1330.27173	-26.22466	653.57733	-1586.01685	40.43007	486.91409	-1560.57104	-48.45805	308.37222	-1552.74207	-122.11775	114.62444	-1507.42773	-169.30388	90.09268	-1464.54639	7.59163	46.57584	-1492.60425	-116.84362	649.91193	-1260.14343	-119.22292	470.5444	-1298.96301	-179.16119	288.23175	-1298.56165	-221.14441	76.50597	-1351.59973	-265.76389	45.7646	-1402.64075	-79.94772	36.179	-1363.79236	NaN	NaN	NaN	NaN	NaN	NaN	NaN	NaN	NaN	NaN	NaN	NaN	NaN	NaN	NaN	NaN	NaN	NaN
131	1.3	-7.64975	1615.91528	-1483.03406	-18.37771	1625.29968	-1350.49707	-137.5011	1577.07446	-1486.46655	-143.66116	1586.16602	-1355.75366	-177.68719	1420.98987	-1417.25342	-212.71582	1105.83533	-1409.15662	-57.36972	1341.62268	-1418.88245	-16.66228	1176.90881	-1423.29504	-229.34431	1247.354	-1312.80432	-108.50489	1376.74915	-1573.97461	-126.46904	1177.64319	-1640.62402	-122.16429	1054.3645	-1651.078	-101.2998	925.60406	-1653.46692	-86.74992	805.97131	-1625.50647	-113.06027	813.51416	-1674.87354	-105.96546	728.6225	-1666.69238	-96.88952	1370.15625	-1258.92529	-69.37843	1151.77441	-1180.7428	-35.55201	1044.2782	-1167.82031	7.28214	914.38867	-1168.71375	50.93445	826.79065	-1209.09094	26.93081	816.03931	-1161.68152	61.99642	750.97314	-1175.33801	-45.90829	946.39948	-1531.95447	-40.8245	944.48492	-1294.25793	-207.71736	958.85278	-1479.9563	-202.14528	973.03589	-1330.5741	-15.42609	653.86383	-1586.17944	51.45122	487.45038	-1559.75916	-29.30617	304.75418	-1552.14917	-91.42048	106.72334	-1506.99011	-136.24571	79.1424	-1463.78381	42.33394	45.77261	-1493.94067	-110.87453	649.29169	-1260.25122	-114.98069	469.99835	-1299.11694	-176.79926	288.21936	-1298.91748	-220.80136	76.82078	-1352.00415	-265.57947	46.48227	-1403.06726	-79.82577	36.11257	-1363.83386	NaN	NaN	NaN	NaN	NaN	NaN	NaN	NaN	NaN	NaN	NaN	NaN	NaN	NaN	NaN	NaN	NaN	NaN
132	1.31	1.57543	1615.01221	-1483.57581	-9.05422	1624.61755	-1351.06372	-128.16183	1576.06323	-1486.84717	-134.2119	1585.38489	-1356.16504	-168.00211	1420.16614	-1417.45325	-203.75639	1105.2063	-1409.30969	-47.98695	1340.75403	-1419.10852	-7.54162	1175.93555	-1423.28918	-220.01814	1246.83484	-1312.72998	-99.4842	1375.79016	-1574.29675	-120.2159	1176.77209	-1641.07727	-118.26138	1053.53442	-1651.95886	-99.28382	924.52576	-1654.83545	-86.14288	804.70972	-1627.203	-112.88776	812.5036	-1676.21301	-106.37241	727.63153	-1668.14258	-87.339	1369.4812	-1259.1593	-58.28065	1151.55469	-1180.42725	-23.2771	1044.51001	-1167.41992	21.49721	915.29492	-1168.54797	66.45361	828.48486	-1209.03723	42.43296	817.13086	-1161.75964	78.34937	752.73987	-1175.38293	-36.6353	945.63873	-1531.74048	-32.82822	943.38245	-1293.9906	-198.68202	958.03748	-1480.34924	-193.56444	972.20782	-1330.91602	-5.09432	653.81183	-1586.34143	61.7696	487.56985	-1559.01331	-10.48683	301.23685	-1551.63867	-60.6924	99.60685	-1507.29456	-103.32983	69.69321	-1463.93567	77.24885	45.60316	-1495.43237	-104.74388	648.65021	-1260.45532	-110.82964	469.49365	-1299.25952	-174.54013	288.26526	-1299.20032	-220.57695	77.32307	-1352.3927	-265.44858	47.25538	-1403.56628	-79.76114	36.06184	-1363.86646	NaN	NaN	NaN	NaN	NaN	NaN	NaN	NaN	NaN	NaN	NaN	NaN	NaN	NaN	NaN	NaN	NaN	NaN
